<svg id="my_hide" xmlns="http://www.w3.org/2000/svg" xmlns:xlink="http://www.w3.org/1999/xlink" width="34" height="26" viewBox="0 0 34 26">
  <defs>
    <clipPath id="clip-path">
      <rect id="Rectangle_2044" data-name="Rectangle 2044" width="34" height="26" transform="translate(916 532)" fill="#fff" stroke="#707070" stroke-width="1"/>
    </clipPath>
  </defs>
  <g id="Mask_Group_8449" data-name="Mask Group 8449" transform="translate(-916 -532)" clip-path="url(#clip-path)">
    <path id="Path_10284" data-name="Path 10284" d="M-2923.991,1287.968q-1-.866-2-1.73l-2.651-2.292c.081-.09.161-.179.239-.269a16.219,16.219,0,0,0,2.56-3.905,1.538,1.538,0,0,0-.694-2.08,1.627,1.627,0,0,0-1.267-.1,1.731,1.731,0,0,0-1.01.959,12.549,12.549,0,0,1-4.853,5.6,12.274,12.274,0,0,1-6.484,1.826,12.843,12.843,0,0,1-6.062-1.262,12.489,12.489,0,0,1-5.869-6.121,2.131,2.131,0,0,0-.552-.747,1.6,1.6,0,0,0-1.949-.028,1.478,1.478,0,0,0-.49,1.893,29.766,29.766,0,0,0,1.5,2.581,16.736,16.736,0,0,0,1.1,1.419l.205.247-1.029.889c-1.111.959-2.259,1.95-3.381,2.934a3.416,3.416,0,0,0-.484.561c-.054.073-.108.147-.165.218l-.109.134v.866l.073.118a1.894,1.894,0,0,0,1.295,1.005,1.958,1.958,0,0,0,1.558-.6q1.6-1.374,3.193-2.755l1.442-1.247a15.194,15.194,0,0,0,4,2.109l-.722,1.392-.584,1.12q-.639,1.225-1.273,2.454a1.566,1.566,0,0,0-.051,1.371,1.6,1.6,0,0,0,1.042.863,1.648,1.648,0,0,0,1.938-.906l.367-.707c.824-1.583,1.676-3.22,2.5-4.836a6.429,6.429,0,0,0,.645.078l.21.019a15.192,15.192,0,0,0,3.561-.091c.174.313.341.639.5.955l.187.363.655,1.262q.794,1.53,1.591,3.06a1.64,1.64,0,0,0,1.449.913,1.594,1.594,0,0,0,.37-.044,1.617,1.617,0,0,0,1.1-.853,1.6,1.6,0,0,0-.053-1.431q-.834-1.614-1.672-3.225l-.911-1.754a15.166,15.166,0,0,0,4-2.111l.719.619q2.063,1.78,4.125,3.561a1.616,1.616,0,0,0,1.329.421,1.541,1.541,0,0,0,1.339-1.111A1.471,1.471,0,0,0-2923.991,1287.968Z" transform="translate(3873.441 -741.496)" fill="#516bdf"/>
  </g>
</svg>
