<svg id="my_display" xmlns="http://www.w3.org/2000/svg" width="34" height="26" viewBox="0 0 34 26">
  <path id="Path_9246" data-name="Path 9246" d="M-2716.981,1260.865a13.462,13.462,0,0,1,7.465,2.556A21.338,21.338,0,0,1-2704.6,1268a3.377,3.377,0,0,1,.73,1.914,3.408,3.408,0,0,1-.73,1.947,21.337,21.337,0,0,1-4.921,4.576,13.507,13.507,0,0,1-7.473,2.556,13.472,13.472,0,0,1-7.469-2.556,21.334,21.334,0,0,1-4.921-4.576,3.392,3.392,0,0,1-.727-1.914,3.436,3.436,0,0,1,.727-1.951,21.477,21.477,0,0,1,4.925-4.576,13.5,13.5,0,0,1,7.473-2.552m0-3.934a17.252,17.252,0,0,0-9.612,3.206,25.273,25.273,0,0,0-5.866,5.463l0,.008,0,.008a7.379,7.379,0,0,0-1.518,4.257v.155a7.329,7.329,0,0,0,1.518,4.216l0,.008,0,.008a25.228,25.228,0,0,0,5.862,5.463,17.24,17.24,0,0,0,9.608,3.206,17.251,17.251,0,0,0,9.612-3.206,25.34,25.34,0,0,0,5.858-5.471,7.327,7.327,0,0,0,1.534-4.265v-.082l0-.082a7.288,7.288,0,0,0-1.534-4.224,25.245,25.245,0,0,0-5.862-5.463,17.2,17.2,0,0,0-9.6-3.206Z" transform="translate(2733.985 -1256.931)" fill="#516bdf"/>
  <path id="Path_9247" data-name="Path 9247" d="M-2683.2,1294.12a6.546,6.546,0,0,0,6.5,6.591,6.546,6.546,0,0,0,6.507-6.585v-.006a6.547,6.547,0,0,0-6.5-6.589,6.546,6.546,0,0,0-6.505,6.587Z" transform="translate(2693.701 -1281.124)" fill="#2e3999"/>
</svg>
